# xmcd CD database file
#
# Track frame offsets:
#	150
#	15895
#	37075
#	47847
#	65110
#	84547
#	102795
#	119252
#	136872
#	154705
#	166797
#	184870
#	201034
#	215160
#	227420
#
# Disc length: 3223 seconds
#
# Revision: 2
# Processed by: cddbd v1.5.2PL0 Copyright (c) Steve Scherf et al.
# Submitted via: CDex 1.51
#
DISCID=c40c950f
DTITLE=Various Artist - Blues Story #8 - Le Louisina Blues
DYEAR=1998
DGENRE=Blues
TTITLE0=Willy DeVille - Hello My Lover
TTITLE1=Tnoy Joe White - Undercover Agent For The Blues
TTITLE2=Fats Domino - Jambalaya
TTITLE3=Dr John - Memories Of Professor Longhair
TTITLE4=Katie Webster - Try A Little Tenderness
TTITLE5=Johnny Neel - The Blues Ain't Nothing
TTITLE6=Buckwheat Zydeco - Beast Of Burden
TTITLE7=C.J. Chenier - Louisiana Down Home Blues
TTITLE8=Sonny Landreth - New Landlord
TTITLE9=Earl King - A Mother's Love
TTITLE10=Coco Robicheaux - Louisiana Medicine Man
TTITLE11=Professor Longhair - Cry To Me
TTITLE12=Clarence "Gatemouth" Brown - C. Jam Blues
TTITLE13=The Meters - Chicken Strut
TTITLE14=Doug Kershaw and Fats Domino - Toot Toot
EXTD=YEAR: 1998
EXTT0=
EXTT1=
EXTT2=
EXTT3=
EXTT4=
EXTT5=
EXTT6=
EXTT7=
EXTT8=
EXTT9=
EXTT10=
EXTT11=
EXTT12=
EXTT13=
EXTT14=
PLAYORDER=
